<?xml version="1.0" encoding="utf-8"?>
<!-- Generator: Adobe Illustrator 24.1.1, SVG Export Plug-In . SVG Version: 6.00 Build 0)  -->
<svg version="1.1" id="Layer_1" xmlns="http://www.w3.org/2000/svg" xmlns:xlink="http://www.w3.org/1999/xlink" x="0px" y="0px"
	 viewBox="0 0 123.5 121" style="enable-background:new 0 0 123.5 121;" xml:space="preserve">
<style type="text/css">
	.st0{display:none;fill:none;stroke:#007A00;stroke-width:7.8913;}
	.st1{display:none;fill:#008000;}
	.st2{display:none;}
	.st3{display:inline;fill:#008000;}
	.st4{fill:none;stroke:#D40000;stroke-width:7.8913;}
	.st5{fill:#D40000;}
	.st6{display:inline;fill:#D40000;}
</style>
<g id="imagebot_2">
	<g id="imagebot_3" transform="translate(-1) matrix(0.47964, 0, 0, 0.48559, -148.475, -26.9964)">
		<path id="imagebot_19" class="st0" d="M67,55.6h212.9c10,0,18,8.1,18,18v213.2c0,10-8.1,18-18,18H67c-10,0-18-8.1-18-18V73.6
			C48.9,63.7,57,55.6,67,55.6z"/>
		<path id="imagebot_18" class="st1" d="M247.8,175.1c0,41.1-33.3,74.4-74.4,74.4s-74.4-33.3-74.4-74.4s33.3-74.4,74.4-74.4
			S247.8,134,247.8,175.1z"/>
		<g id="imagebot_14" transform="matrix(.99957 0 0 1.0004 -3.6971 -5.1759)" class="st2">
			<path id="imagebot_17" class="st3" d="M142.5,294.6c-1.2-2.6-2.4-5.2-3.6-8c-1.2-2.8-2.3-5.5-3.4-8.2s-2-5.3-3-7.8
				c-0.9-2.5-1.6-4.7-2.3-6.6h7.6c0.6,1.8,1.2,3.7,1.9,5.7c0.7,2,1.4,4.1,2.1,6.1c0.7,2,1.4,4,2.1,5.8c0.7,1.9,1.3,3.5,1.9,4.8
				c0.6-1.4,1.2-3,1.9-4.8c0.7-1.9,1.4-3.8,2.1-5.8c0.7-2,1.4-4.1,2.1-6.1c0.7-2.1,1.4-4,1.9-5.7h7.3c-0.7,1.9-1.5,4.2-2.3,6.6
				c-0.9,2.5-1.9,5.1-2.9,7.8c-1.1,2.7-2.2,5.5-3.4,8.2s-2.4,5.4-3.6,8H142.5"/>
			<path id="imagebot_16" class="st3" d="M165.4,294.6v-30.6H186v5.8h-13.8v6h12.2v5.7h-12.2v7.4h14.8v5.8L165.4,294.6"/>
			<path id="imagebot_15" class="st3" d="M207.1,269.2c-3.2,0-5.5,0.9-7,2.7c-1.4,1.8-2.1,4.2-2.1,7.3c0,1.5,0.2,2.9,0.5,4.1
				c0.4,1.2,0.9,2.3,1.6,3.1c0.7,0.9,1.6,1.6,2.7,2.1c1.1,0.5,2.3,0.7,3.7,0.7c0.8,0,1.4,0,1.9,0c0.6,0,1-0.1,1.5-0.2v-10.7h6.9
				v15.2c-0.8,0.3-2.2,0.7-4,1c-1.8,0.4-4.1,0.6-6.8,0.6c-2.3,0-4.4-0.4-6.3-1.1c-1.9-0.7-3.4-1.7-4.8-3.1s-2.4-3-3.1-5
				c-0.7-2-1.1-4.2-1.1-6.8c0-2.6,0.4-4.8,1.2-6.8c0.8-2,1.9-3.6,3.3-5c1.4-1.4,3-2.4,4.9-3.1c1.9-0.7,3.9-1.1,6-1.1
				c1.4,0,2.7,0.1,3.9,0.3c1.2,0.2,2.2,0.4,3,0.7c0.9,0.2,1.5,0.5,2.1,0.8c0.6,0.3,1,0.5,1.2,0.6l-2,5.5c-0.9-0.5-2-0.9-3.3-1.3
				C209.8,269.4,208.5,269.2,207.1,269.2"/>
		</g>
		<path id="imagebot_13" class="st4" d="M332.9,55.6h212.9c10,0,18,8.1,18,18v213.2c0,10-8.1,18-18,18H332.9c-10,0-18-8.1-18-18
			V73.6C314.9,63.7,323,55.6,332.9,55.6z"/>
		<path id="imagebot_12" class="st5" d="M513.8,175.1c0,41.1-33.3,74.4-74.4,74.4S365,216.3,365,175.1s33.3-74.4,74.4-74.4
			S513.8,134,513.8,175.1z"/>
		<g id="imagebot_4" transform="matrix(.78879 0 0 .78947 254.07 -279.75)" class="st2">
			<path id="imagebot_11" class="st6" d="M132.3,720.9c-2.5-4.4-5.2-8.8-8.1-13.2c-2.9-4.3-6-8.4-9.3-12.3v25.4h-8.6v-38.8h7.1
				c1.2,1.2,2.6,2.7,4.1,4.5c1.5,1.8,3,3.7,4.5,5.8c1.6,2,3.1,4.1,4.6,6.3c1.5,2.2,3,4.3,4.3,6.3v-22.9h8.7v38.8H132.3"/>
			<path id="imagebot_10" class="st6" d="M155.9,701.5c0,1.9,0.2,3.6,0.7,5.2c0.5,1.5,1.2,2.9,2,4c0.9,1.1,2,1.9,3.2,2.5
				c1.3,0.6,2.7,0.9,4.4,0.9c1.6,0,3-0.3,4.3-0.9c1.3-0.6,2.4-1.4,3.2-2.5c0.9-1.1,1.6-2.4,2-4c0.5-1.5,0.7-3.2,0.7-5.2
				c0-1.9-0.2-3.6-0.7-5.2c-0.4-1.6-1.1-2.9-2-4c-0.9-1.1-1.9-2-3.2-2.6c-1.3-0.6-2.7-0.9-4.3-0.9c-1.6,0-3.1,0.3-4.4,1
				c-1.3,0.6-2.4,1.5-3.2,2.6c-0.9,1.1-1.5,2.4-2,4C156.1,697.9,155.9,699.6,155.9,701.5 M185.5,701.5c0,3.3-0.5,6.3-1.5,8.8
				c-1,2.5-2.3,4.6-4,6.3c-1.7,1.7-3.8,2.9-6.2,3.8c-2.4,0.9-4.9,1.3-7.6,1.3c-2.7,0-5.2-0.4-7.5-1.3c-2.4-0.9-4.4-2.1-6.2-3.8
				c-1.8-1.7-3.1-3.8-4.1-6.3c-1-2.5-1.5-5.5-1.5-8.8c0-3.3,0.5-6.2,1.6-8.7c1-2.5,2.4-4.7,4.2-6.4c1.8-1.7,3.8-3,6.2-3.9
				c2.4-0.9,4.8-1.3,7.4-1.3c2.7,0,5.2,0.4,7.5,1.3c2.4,0.9,4.4,2.1,6.2,3.9c1.8,1.7,3.1,3.8,4.1,6.4
				C185,695.3,185.5,698.2,185.5,701.5"/>
			<path id="imagebot_9" class="st6" d="M218.8,720.9c-2.5-4.4-5.2-8.8-8.1-13.2c-2.9-4.3-6-8.4-9.3-12.3v25.4h-8.6v-38.8h7.1
				c1.2,1.2,2.6,2.7,4.1,4.5c1.5,1.8,3,3.7,4.5,5.8c1.6,2,3.1,4.1,4.6,6.3c1.5,2.2,3,4.3,4.3,6.3v-22.9h8.7v38.8H218.8"/>
			<path id="imagebot_8" class="st6" d="M232,700.4h16.2v7.6H232V700.4"/>
			<path id="imagebot_7" class="st6" d="M264,720.9c-1.5-3.2-3-6.6-4.5-10.1s-2.9-7-4.3-10.4c-1.3-3.4-2.6-6.7-3.8-9.9
				c-1.1-3.1-2.1-5.9-2.9-8.4h9.6c0.7,2.2,1.5,4.7,2.4,7.3l2.7,7.7c0.9,2.6,1.8,5,2.7,7.4c0.9,2.4,1.7,4.4,2.4,6.1
				c0.7-1.7,1.5-3.8,2.4-6.1c0.9-2.4,1.8-4.8,2.7-7.4c0.9-2.6,1.8-5.2,2.7-7.7c0.9-2.6,1.7-5,2.5-7.3h9.3c-0.9,2.5-1.8,5.3-3,8.4
				s-2.4,6.4-3.7,9.9c-1.3,3.4-2.8,6.9-4.3,10.4c-1.5,3.5-3,6.9-4.5,10.1H264"/>
			<path id="imagebot_6" class="st6" d="M293,720.9v-38.8h26.2v7.3h-17.5v7.6h15.5v7.2h-15.5v9.4h18.8v7.3H293"/>
			<path id="imagebot_5" class="st6" d="M345.8,688.8c-4.1,0-7,1.1-8.8,3.4c-1.8,2.2-2.7,5.3-2.7,9.2c0,1.9,0.2,3.6,0.7,5.2
				c0.4,1.5,1.1,2.9,2,4s2,2,3.4,2.6c1.3,0.6,2.9,0.9,4.7,0.9c1,0,1.8,0,2.5-0.1c0.7,0,1.3-0.1,1.8-0.2v-13.5h8.7v19.2
				c-1,0.4-2.7,0.8-5,1.3c-2.3,0.5-5.2,0.7-8.6,0.7c-2.9,0-5.6-0.4-8-1.3c-2.4-0.9-4.4-2.2-6-3.9s-3-3.8-3.9-6.3
				c-0.9-2.5-1.3-5.4-1.3-8.6c0-3.2,0.5-6.1,1.5-8.6c1-2.5,2.4-4.6,4.1-6.3c1.8-1.8,3.8-3.1,6.2-4c2.4-0.9,4.9-1.3,7.6-1.3
				c1.8,0,3.5,0.1,4.9,0.4c1.5,0.2,2.8,0.5,3.8,0.8c1.1,0.3,2,0.6,2.6,1c0.7,0.3,1.2,0.6,1.5,0.8l-2.5,7c-1.2-0.6-2.6-1.2-4.1-1.6
				C349.3,689.1,347.6,688.9,345.8,688.8"/>
		</g>
	</g>
</g>
</svg>
